<svg width="22" height="97" fill="none" xmlns="http://www.w3.org/2000/svg">
  <path d="M17.158 34.74C14.623 52.382 11.27 80 11.27 80L3.929 27.333C2.882 19.655 1.271 7.67 1.271 7.67c0-1.026.854-3.137 2.657-4.523C6.07 1.5 7.92 1 11.271 1c3.35 0 5.537.38 7.688 2.147 1.705 1.401 2.311 3.497 2.311 4.523 0 1.025-2.59 16.486-4.112 27.07Z" fill="#fff" stroke="#707070" stroke-width=".695"/>
  <circle cx="11.271" cy="7.052" r="3" transform="rotate(180 11.27 7.052)" fill="#0070D6"/>
  <path d="M14.214 79.385 11.27 96 7.6 76.667l-1.33-7.219c0-.376.428-1.151 1.33-1.66C8.67 67.184 9.594 67 11.27 67c1.676 0 2.77.14 3.845.788.852.515 1.155 1.284 1.155 1.66 0 .377-2.056 9.937-2.056 9.937Z" fill="#fff" stroke="#707070" stroke-width=".695"/>
  <circle cx="11.271" cy="70" r="2" transform="rotate(180 11.27 70)" fill="#0070D6"/>
</svg>
