<svg xmlns="http://www.w3.org/2000/svg" width="503" height="955.008" viewBox="0 0 503 955.008">
  <g id="Path_13" data-name="Path 13" transform="translate(0 22.342)" fill="rgba(105,144,167,0.25)">
    <path d="M 440.1343383789062 932.1663818359375 C 433.2904663085938 932.1663818359375 426.1138916015625 931.966064453125 418.515869140625 931.7539672851562 C 410.2810668945312 931.5240478515625 401.7657775878906 931.2863159179688 392.9687194824219 931.2863159179688 L 110.0312957763672 931.2863159179688 C 106.6598815917969 931.2863159179688 103.2885894775391 931.2977294921875 100.0284729003906 931.3086547851562 C 96.74494171142578 931.3197021484375 93.64364624023438 931.3302001953125 90.51823425292969 931.3302001953125 C 78.50305938720703 931.3302001953125 65.84953308105469 931.1757202148438 54.71411895751953 930.0552368164062 C 48.96223449707031 929.4763793945312 43.9444694519043 928.68701171875 39.37388229370117 927.6417236328125 C 34.38705825805664 926.5010986328125 30.06694030761719 925.089111328125 26.16682434082031 923.3248901367188 C 17.70670509338379 919.498046875 11.54800033569336 914.1099243164062 7.339058876037598 906.8525390625 C 5.102235317230225 902.99560546875 3.395411729812622 898.5238037109375 2.2662353515625 893.5615844726562 C 1.094235301017761 888.411376953125 0.5 882.540283203125 0.5 876.111572265625 L 0.5 276.5391235351562 C 0.5 262.3052368164062 3.022705793380737 246.6165313720703 7.99788236618042 229.9087677001953 C 12.68070602416992 214.1832275390625 19.55894088745117 197.46240234375 28.44153022766113 180.2107543945312 C 44.99282455444336 148.0647583007812 68.26435089111328 114.4880523681641 95.74011993408203 83.11052703857422 C 108.7880020141602 68.20982360839844 122.4535293579102 54.18770217895508 136.35693359375 41.43358612060547 C 150.2529449462891 28.6862907409668 164.0792999267578 17.48781967163086 177.4517669677734 8.14899730682373 C 191.1227111816406 -1.398179411888123 204.0531768798828 -8.812179565429688 215.8837585449219 -13.88723850250244 C 228.1888275146484 -19.16570854187012 239.1509399414062 -21.84206199645996 248.4656524658203 -21.84206199645996 C 257.8793029785156 -21.75853157043457 268.9913024902344 -19.09476852416992 281.4888305664062 -13.92500305175781 C 293.5603637695312 -8.931473731994629 306.7435302734375 -1.679591178894043 320.6722412109375 7.628996849060059 C 334.386474609375 16.79429054260254 348.5328369140625 27.75711441040039 362.7184753417969 40.21276092529297 C 377.0159912109375 52.76664352416992 391.0322265625 66.55641174316406 404.3777770996094 81.19899749755859 C 432.7041320800781 112.2781753540039 456.6390686035156 145.7038269042969 473.5950622558594 177.8625335693359 C 482.7576599121094 195.2401733398438 489.8565979003906 212.2002868652344 494.694580078125 228.2714691162109 C 499.8430480957031 245.3738250732422 502.4691772460938 261.6138305664062 502.5 276.5401611328125 L 502.5 883.8690185546875 C 502.5 889.09912109375 502.1068115234375 893.913330078125 501.331298828125 898.1779174804688 C 500.5792846679688 902.3134765625 499.441162109375 906.07666015625 497.9488220214844 909.3626708984375 C 496.5098876953125 912.5308837890625 494.6883544921875 915.371826171875 492.5346984863281 917.8065185546875 C 490.4683532714844 920.1423950195312 488.0149536132812 922.19580078125 485.2423400878906 923.9098510742188 C 480.0945739746094 927.092041015625 473.65576171875 929.2718505859375 465.55810546875 930.5733642578125 C 458.7968139648438 931.66015625 450.7182312011719 932.1663818359375 440.1343383789062 932.1663818359375 Z" stroke="none"/>
    <path d="M 248.4568176269531 -21.342041015625 L 248.4573364257812 -21.342041015625 C 239.2125549316406 -21.3404541015625 228.3195495605469 -18.6776123046875 216.0809326171875 -13.427734375 C 204.2815246582031 -8.36614990234375 191.3810729980469 -0.96875 177.7380065917969 8.55902099609375 C 164.3836364746094 17.8851318359375 150.57470703125 29.0697021484375 136.6949462890625 41.80206298828125 C 122.8048095703125 54.5438232421875 109.1522216796875 68.5528564453125 96.11636352539062 83.43994140625 C 68.66693115234375 114.7872314453125 45.4190673828125 148.3292236328125 28.885986328125 180.4395751953125 C 20.01763916015625 197.6636962890625 13.15106201171875 214.3555908203125 8.4771728515625 230.0513305664062 C 3.515655517578125 246.7127685546875 1 262.3534545898438 1 276.5390014648438 L 1 876.111572265625 C 1 882.5029907226562 1.589996337890625 888.3367919921875 2.753753662109375 893.4506225585938 C 3.87176513671875 898.3637084960938 5.55999755859375 902.7883911132812 7.771636962890625 906.6016845703125 C 11.92648315429688 913.7658081054688 18.01095581054688 919.0869750976562 26.37283325195312 922.8693237304688 C 30.24224853515625 924.6196899414062 34.53140258789062 926.021240234375 39.48529052734375 927.154296875 C 44.035400390625 928.1948852539062 49.03317260742188 928.9811401367188 54.76412963867188 929.5578002929688 C 65.87753295898438 930.676025390625 78.5159912109375 930.8302001953125 90.51824951171875 930.8302001953125 C 93.642822265625 930.8302001953125 96.7437744140625 930.8197021484375 100.0268249511719 930.8086547851562 C 103.2874145507812 930.7977294921875 106.6590576171875 930.7863159179688 110.0312805175781 930.7863159179688 L 392.9686889648438 930.7863159179688 C 401.7730712890625 930.7863159179688 410.2919921875 931.024169921875 418.5304565429688 931.254150390625 C 426.1245727539062 931.4661865234375 433.2976379394531 931.6663818359375 440.1343383789062 931.6663818359375 C 450.6909484863281 931.6663818359375 458.7443542480469 931.1622924804688 465.4788208007812 930.0797119140625 C 473.5101318359375 928.7888793945312 479.8888244628906 926.6314697265625 484.9795227050781 923.4844970703125 C 490.5989379882812 920.0106201171875 494.6923522949219 915.32373046875 497.4935302734375 909.1558227539062 C 498.9689331054688 905.9072265625 500.0946960449219 902.18359375 500.8394165039062 898.08837890625 C 501.6095275878906 893.8532104492188 502 889.0692138671875 502 883.8690185546875 L 502 276.5411376953125 C 501.9691772460938 261.6632080078125 499.3502502441406 245.4714965820312 494.2157592773438 228.4154663085938 C 489.3869323730469 212.375 482.3003540039062 195.4448852539062 473.1527099609375 178.0955810546875 C 456.2161254882812 145.9738159179688 432.3063354492188 112.5839233398438 404.0082397460938 81.53570556640625 C 390.675048828125 66.90673828125 376.672119140625 53.13018798828125 362.3884887695312 40.58837890625 C 348.2192993164062 28.1470947265625 334.0904541015625 17.19781494140625 320.3943481445312 8.04461669921875 C 306.492919921875 -1.2457275390625 293.3389282226562 -8.48193359375 281.2977600097656 -13.4630126953125 C 268.8597717285156 -18.608154296875 257.8104858398438 -21.25909423828125 248.4568176269531 -21.342041015625 M 248.4656524658203 -22.342041015625 C 326.093994140625 -21.65313720703125 502.7435302734375 152.5531005859375 503 276.5390014648438 L 503 883.8690185546875 C 503 943.1941528320312 453.7373046875 931.7863159179688 392.9686889648438 931.7863159179688 L 110.0312805175781 931.7863159179688 C 103.3735961914062 931.7863159179688 96.85009765625 931.8301391601562 90.51824951171875 931.8301391601562 C 39.05581665039062 931.8301391601562 0 928.9371948242188 0 876.111572265625 L 0 276.5390014648438 C 0 158.3594970703125 171.4821166992188 -22.342041015625 248.4656524658203 -22.342041015625 Z" stroke="none" fill="#707070"/>
  </g>
</svg>
