<svg width="495" height="499" viewBox="0 0 495 499" fill="none" xmlns="http://www.w3.org/2000/svg">
<g id="azimtuh-component">
<g id="watchface">
<g id="watchface_2">
<g id="frame">
<path id="frame_2" d="M247.5 444.578C354.564 444.578 441.359 358.136 441.359 251.5C441.359 144.864 354.564 58.4219 247.5 58.4219C140.436 58.4219 53.6406 144.864 53.6406 251.5C53.6406 358.136 140.436 444.578 247.5 444.578ZM417.156 251.5C417.156 344.817 341.2 420.469 247.5 420.469C153.8 420.469 77.8438 344.817 77.8438 251.5C77.8438 158.183 153.8 82.5312 247.5 82.5312C341.2 82.5312 417.156 158.183 417.156 251.5Z" fill="white" stroke="#D9D9D9"/>
</g>
<g id="tertiary-tick-marks">
<path id="tick-marks" d="M307.019 88.6285L309.665 81.3899M334.512 101.396L338.379 94.7253M359.36 118.724L364.332 112.823M380.81 140.088L386.735 135.137M398.209 164.836L404.907 160.984M411.028 192.218L418.296 189.583M418.88 221.4L426.496 220.062M421.523 251.496H429.258M418.88 281.594L426.497 282.931M411.029 310.775L418.296 313.409M398.209 338.155L404.907 342.006M380.81 362.903L386.735 367.855M359.36 384.266L364.332 390.167M334.512 401.596L338.379 408.267M307.02 414.364L309.665 421.602M277.719 422.182L279.062 429.768M247.5 424.815V432.518M217.281 422.181L215.938 429.767M187.98 414.362L185.335 421.601M160.488 401.596L156.621 408.267M135.64 384.269L130.668 390.17M114.19 362.906L108.265 367.858M96.7912 338.159L90.0931 342.01M83.9714 310.776L76.7035 313.411M76.1203 281.594L68.5035 282.932M73.4766 251.498H65.7422M76.1204 221.403L68.5036 220.065M83.9714 192.222L76.7035 189.587M96.7913 164.84L90.0931 160.988M114.19 140.091L108.265 135.14M135.64 118.729L130.668 112.828M160.488 101.4L156.621 94.7294M187.98 88.6325L185.335 81.3939M217.281 80.814L215.938 73.2279M247.5 78.1797V70.4766M277.719 80.8094L279.062 73.2233" stroke="#707070"/>
</g>
<g id="secondary-tick-marks">
<path id="tick-marks_2" d="M247.5 424.82V440.227M73.4766 251.5H58.0078M247.5 78.1797V62.7734M421.523 251.5H436.992" stroke="#D9D9D9"/>
</g>
<g id="primary-tick-marks">
<path id="tick-marks_3" d="M247.5 78.1797V58.9219M247.5 444.078V424.82M421.523 251.5H440.859M54.1406 251.5H73.4766" stroke="#707070"/>
</g>
<g id="labels">
<g id="90&#194;&#176;">
<g id="LabelFrame">
<path id="000" d="M250.759 23.716C250.759 24.404 250.703 25.02 250.591 25.564C250.487 26.108 250.315 26.572 250.075 26.956C249.843 27.332 249.539 27.62 249.163 27.82C248.787 28.02 248.327 28.12 247.783 28.12C247.103 28.12 246.543 27.944 246.103 27.592C245.671 27.24 245.347 26.736 245.131 26.08C244.923 25.416 244.819 24.628 244.819 23.716C244.819 22.788 244.915 21.996 245.107 21.34C245.299 20.684 245.611 20.18 246.043 19.828C246.483 19.476 247.063 19.3 247.783 19.3C248.463 19.3 249.019 19.476 249.451 19.828C249.891 20.172 250.219 20.676 250.435 21.34C250.651 21.996 250.759 22.788 250.759 23.716ZM246.487 23.716C246.487 24.388 246.527 24.952 246.607 25.408C246.687 25.856 246.819 26.196 247.003 26.428C247.195 26.652 247.455 26.764 247.783 26.764C248.111 26.764 248.367 26.652 248.551 26.428C248.743 26.204 248.879 25.868 248.959 25.42C249.047 24.964 249.091 24.396 249.091 23.716C249.091 23.036 249.047 22.472 248.959 22.024C248.879 21.568 248.743 21.228 248.551 21.004C248.367 20.772 248.111 20.656 247.783 20.656C247.455 20.656 247.195 20.772 247.003 21.004C246.819 21.228 246.687 21.564 246.607 22.012C246.527 22.46 246.487 23.028 246.487 23.716Z" fill="#737373"/>
</g>
<g id="LabelFrame_2">
<path id="180" d="M242.32 474.781H240.652V469.633C240.652 469.481 240.652 469.309 240.652 469.117C240.66 468.917 240.668 468.717 240.676 468.517C240.684 468.317 240.692 468.133 240.7 467.965C240.644 468.029 240.552 468.121 240.424 468.241C240.304 468.361 240.18 468.473 240.052 468.577L239.092 469.357L238.276 468.337L240.952 466.213H242.32V474.781ZM247.795 466.105C248.291 466.105 248.743 466.181 249.151 466.333C249.559 466.485 249.883 466.713 250.123 467.017C250.371 467.321 250.495 467.705 250.495 468.169C250.495 468.513 250.427 468.813 250.291 469.069C250.155 469.325 249.971 469.553 249.739 469.753C249.507 469.945 249.243 470.113 248.947 470.257C249.259 470.417 249.551 470.605 249.823 470.821C250.103 471.029 250.327 471.277 250.495 471.565C250.671 471.845 250.759 472.177 250.759 472.561C250.759 473.033 250.635 473.445 250.387 473.797C250.139 474.149 249.791 474.421 249.343 474.613C248.903 474.805 248.387 474.901 247.795 474.901C247.163 474.901 246.623 474.809 246.175 474.625C245.735 474.441 245.399 474.177 245.167 473.833C244.935 473.489 244.819 473.081 244.819 472.609C244.819 472.217 244.891 471.877 245.035 471.589C245.187 471.301 245.391 471.053 245.647 470.845C245.903 470.629 246.183 470.449 246.487 470.305C246.223 470.145 245.983 469.965 245.767 469.765C245.559 469.557 245.391 469.325 245.263 469.069C245.143 468.805 245.083 468.501 245.083 468.157C245.083 467.701 245.207 467.321 245.455 467.017C245.703 466.713 246.035 466.485 246.451 466.333C246.867 466.181 247.315 466.105 247.795 466.105ZM246.367 472.525C246.367 472.853 246.483 473.125 246.715 473.341C246.955 473.557 247.307 473.665 247.771 473.665C248.091 473.665 248.355 473.617 248.563 473.521C248.779 473.425 248.939 473.293 249.043 473.125C249.155 472.949 249.211 472.749 249.211 472.525C249.211 472.293 249.143 472.093 249.007 471.925C248.879 471.749 248.711 471.593 248.503 471.457C248.303 471.313 248.087 471.185 247.855 471.073L247.687 470.989C247.423 471.109 247.191 471.245 246.991 471.397C246.791 471.549 246.635 471.717 246.523 471.901C246.419 472.077 246.367 472.285 246.367 472.525ZM247.783 467.329C247.455 467.329 247.183 467.413 246.967 467.581C246.759 467.741 246.655 467.973 246.655 468.277C246.655 468.493 246.707 468.681 246.811 468.841C246.915 468.993 247.055 469.129 247.231 469.249C247.407 469.361 247.599 469.465 247.807 469.561C248.007 469.473 248.191 469.373 248.359 469.261C248.527 469.149 248.663 469.013 248.767 468.853C248.871 468.693 248.923 468.501 248.923 468.277C248.923 467.973 248.815 467.741 248.599 467.581C248.391 467.413 248.119 467.329 247.783 467.329ZM257.626 470.497C257.626 471.185 257.57 471.801 257.458 472.345C257.354 472.889 257.182 473.353 256.942 473.737C256.71 474.113 256.406 474.401 256.03 474.601C255.654 474.801 255.194 474.901 254.65 474.901C253.97 474.901 253.41 474.725 252.97 474.373C252.538 474.021 252.214 473.517 251.998 472.861C251.79 472.197 251.686 471.409 251.686 470.497C251.686 469.569 251.782 468.777 251.974 468.121C252.166 467.465 252.478 466.961 252.91 466.609C253.35 466.257 253.93 466.081 254.65 466.081C255.33 466.081 255.886 466.257 256.318 466.609C256.758 466.953 257.086 467.457 257.302 468.121C257.518 468.777 257.626 469.569 257.626 470.497ZM253.354 470.497C253.354 471.169 253.394 471.733 253.474 472.189C253.554 472.637 253.686 472.977 253.87 473.209C254.062 473.433 254.322 473.545 254.65 473.545C254.978 473.545 255.234 473.433 255.418 473.209C255.61 472.985 255.746 472.649 255.826 472.201C255.914 471.745 255.958 471.177 255.958 470.497C255.958 469.817 255.914 469.253 255.826 468.805C255.746 468.349 255.61 468.009 255.418 467.785C255.234 467.553 254.978 467.437 254.65 467.437C254.322 467.437 254.062 467.553 253.87 467.785C253.686 468.009 253.554 468.345 253.474 468.793C253.394 469.241 253.354 469.809 253.354 470.497Z" fill="#737373"/>
</g>
<g id="LabelFrame_3">
<path id="090" d="M471.123 246.483C471.123 246.971 471.087 247.459 471.015 247.947C470.943 248.427 470.819 248.883 470.643 249.315C470.467 249.739 470.219 250.119 469.899 250.455C469.579 250.783 469.171 251.043 468.675 251.235C468.187 251.419 467.595 251.511 466.899 251.511C466.731 251.511 466.535 251.503 466.311 251.487C466.087 251.479 465.903 251.455 465.759 251.415V250.071C465.911 250.103 466.075 250.135 466.251 250.167C466.435 250.191 466.615 250.203 466.791 250.203C467.335 250.203 467.779 250.135 468.123 249.999C468.475 249.855 468.751 249.655 468.951 249.399C469.159 249.143 469.307 248.843 469.395 248.499C469.491 248.155 469.547 247.779 469.563 247.371H469.503C469.383 247.555 469.243 247.723 469.083 247.875C468.923 248.027 468.723 248.147 468.483 248.235C468.243 248.323 467.939 248.367 467.571 248.367C467.083 248.367 466.659 248.263 466.299 248.055C465.939 247.847 465.655 247.543 465.447 247.143C465.247 246.743 465.147 246.255 465.147 245.679C465.147 245.063 465.263 244.535 465.495 244.095C465.735 243.647 466.071 243.307 466.503 243.075C466.935 242.843 467.447 242.727 468.039 242.727C468.471 242.727 468.871 242.803 469.239 242.955C469.615 243.107 469.943 243.339 470.223 243.651C470.511 243.955 470.731 244.343 470.883 244.815C471.043 245.287 471.123 245.843 471.123 246.483ZM468.063 244.071C467.687 244.071 467.375 244.199 467.127 244.455C466.887 244.711 466.767 245.111 466.767 245.655C466.767 246.103 466.871 246.455 467.079 246.711C467.287 246.959 467.603 247.083 468.027 247.083C468.315 247.083 468.563 247.023 468.771 246.903C468.987 246.775 469.155 246.615 469.275 246.423C469.395 246.231 469.455 246.031 469.455 245.823C469.455 245.615 469.427 245.407 469.371 245.199C469.315 244.991 469.227 244.803 469.107 244.635C468.995 244.459 468.851 244.323 468.675 244.227C468.499 244.123 468.295 244.071 468.063 244.071ZM477.99 247.107C477.99 247.795 477.934 248.411 477.822 248.955C477.718 249.499 477.546 249.963 477.306 250.347C477.074 250.723 476.77 251.011 476.394 251.211C476.018 251.411 475.558 251.511 475.014 251.511C474.334 251.511 473.774 251.335 473.334 250.983C472.902 250.631 472.578 250.127 472.362 249.471C472.154 248.807 472.05 248.019 472.05 247.107C472.05 246.179 472.146 245.387 472.338 244.731C472.53 244.075 472.842 243.571 473.274 243.219C473.714 242.867 474.294 242.691 475.014 242.691C475.694 242.691 476.25 242.867 476.682 243.219C477.122 243.563 477.45 244.067 477.666 244.731C477.882 245.387 477.99 246.179 477.99 247.107ZM473.718 247.107C473.718 247.779 473.758 248.343 473.838 248.799C473.918 249.247 474.05 249.587 474.234 249.819C474.426 250.043 474.686 250.155 475.014 250.155C475.342 250.155 475.598 250.043 475.782 249.819C475.974 249.595 476.11 249.259 476.19 248.811C476.278 248.355 476.322 247.787 476.322 247.107C476.322 246.427 476.278 245.863 476.19 245.415C476.11 244.959 475.974 244.619 475.782 244.395C475.598 244.163 475.342 244.047 475.014 244.047C474.686 244.047 474.426 244.163 474.234 244.395C474.05 244.619 473.918 244.955 473.838 245.403C473.758 245.851 473.718 246.419 473.718 247.107Z" fill="#737373"/>
</g>
<g id="LabelFrame_4">
<path id="-90" d="M14.5832 248.859V247.491H17.6792V248.859H14.5832ZM24.4624 246.483C24.4624 246.971 24.4264 247.459 24.3544 247.947C24.2824 248.427 24.1584 248.883 23.9824 249.315C23.8064 249.739 23.5584 250.119 23.2384 250.455C22.9184 250.783 22.5104 251.043 22.0144 251.235C21.5264 251.419 20.9344 251.511 20.2384 251.511C20.0704 251.511 19.8744 251.503 19.6504 251.487C19.4264 251.479 19.2424 251.455 19.0984 251.415V250.071C19.2504 250.103 19.4144 250.135 19.5904 250.167C19.7744 250.191 19.9544 250.203 20.1304 250.203C20.6744 250.203 21.1184 250.135 21.4624 249.999C21.8144 249.855 22.0904 249.655 22.2904 249.399C22.4984 249.143 22.6464 248.843 22.7344 248.499C22.8304 248.155 22.8864 247.779 22.9024 247.371H22.8424C22.7224 247.555 22.5824 247.723 22.4224 247.875C22.2624 248.027 22.0624 248.147 21.8224 248.235C21.5824 248.323 21.2784 248.367 20.9104 248.367C20.4224 248.367 19.9984 248.263 19.6384 248.055C19.2784 247.847 18.9944 247.543 18.7864 247.143C18.5864 246.743 18.4864 246.255 18.4864 245.679C18.4864 245.063 18.6024 244.535 18.8344 244.095C19.0744 243.647 19.4104 243.307 19.8424 243.075C20.2744 242.843 20.7864 242.727 21.3784 242.727C21.8104 242.727 22.2104 242.803 22.5784 242.955C22.9544 243.107 23.2824 243.339 23.5624 243.651C23.8504 243.955 24.0704 244.343 24.2224 244.815C24.3824 245.287 24.4624 245.843 24.4624 246.483ZM21.4024 244.071C21.0264 244.071 20.7144 244.199 20.4664 244.455C20.2264 244.711 20.1064 245.111 20.1064 245.655C20.1064 246.103 20.2104 246.455 20.4184 246.711C20.6264 246.959 20.9424 247.083 21.3664 247.083C21.6544 247.083 21.9024 247.023 22.1104 246.903C22.3264 246.775 22.4944 246.615 22.6144 246.423C22.7344 246.231 22.7944 246.031 22.7944 245.823C22.7944 245.615 22.7664 245.407 22.7104 245.199C22.6544 244.991 22.5664 244.803 22.4464 244.635C22.3344 244.459 22.1904 244.323 22.0144 244.227C21.8384 244.123 21.6344 244.071 21.4024 244.071ZM31.3296 247.107C31.3296 247.795 31.2736 248.411 31.1616 248.955C31.0576 249.499 30.8856 249.963 30.6456 250.347C30.4136 250.723 30.1096 251.011 29.7336 251.211C29.3576 251.411 28.8976 251.511 28.3536 251.511C27.6736 251.511 27.1136 251.335 26.6736 250.983C26.2416 250.631 25.9176 250.127 25.7016 249.471C25.4936 248.807 25.3896 248.019 25.3896 247.107C25.3896 246.179 25.4856 245.387 25.6776 244.731C25.8696 244.075 26.1816 243.571 26.6136 243.219C27.0536 242.867 27.6336 242.691 28.3536 242.691C29.0336 242.691 29.5896 242.867 30.0216 243.219C30.4616 243.563 30.7896 244.067 31.0056 244.731C31.2216 245.387 31.3296 246.179 31.3296 247.107ZM27.0576 247.107C27.0576 247.779 27.0976 248.343 27.1776 248.799C27.2576 249.247 27.3896 249.587 27.5736 249.819C27.7656 250.043 28.0256 250.155 28.3536 250.155C28.6816 250.155 28.9376 250.043 29.1216 249.819C29.3136 249.595 29.4496 249.259 29.5296 248.811C29.6176 248.355 29.6616 247.787 29.6616 247.107C29.6616 246.427 29.6176 245.863 29.5296 245.415C29.4496 244.959 29.3136 244.619 29.1216 244.395C28.9376 244.163 28.6816 244.047 28.3536 244.047C28.0256 244.047 27.7656 244.163 27.5736 244.395C27.3896 244.619 27.2576 244.955 27.1776 245.403C27.0976 245.851 27.0576 246.419 27.0576 247.107Z" fill="#737373"/>
</g>
<path id="Ellipse 24" d="M416.895 252C416.895 345.336 341.007 421 247.395 421C153.783 421 77.895 345.336 77.895 252C77.895 158.664 153.783 83 247.395 83C341.007 83 416.895 158.664 416.895 252Z" fill="#D9D9D9" fill-opacity="0.35"/>
</g>
</g>
<path id="top-line" d="M247.5 58.9219V82.0312" stroke="#707070"/>
</g>
</g>
<g id="Thruster M">
<g id="thruster">
<g id="ThrusterElement" filter="url(#filter0_d_20_2990)">
<rect width="280.914" height="91.4822" rx="2" transform="matrix(0 1 -0.999994 0.00350615 293 118.058)" fill="white" shape-rendering="crispEdges"/>
<g id="Tickmarks" clip-path="url(#clip0_20_2990)">
<path id="Subtract" fill-rule="evenodd" clip-rule="evenodd" d="M220.87 118.311L213.833 118.336V119.336L220.87 119.311V118.311ZM273.648 118.126V119.126L280.685 119.101V118.101L273.648 118.126ZM220.87 132.311L213.833 132.336V133.336L220.87 133.311V132.311ZM273.648 133.126V132.126L280.685 132.101V133.101L273.648 133.126ZM220.87 146.311L213.833 146.336V147.336L220.87 147.311V146.311ZM273.648 147.126V146.126L280.685 146.101V147.101L273.648 147.126ZM220.87 160.311L213.833 160.336V161.336L220.87 161.311V160.311ZM273.648 161.126V160.126L280.685 160.101V161.101L273.648 161.126ZM220.87 174.311L213.833 174.336V175.336L220.87 175.311V174.311ZM273.648 175.126V174.126L280.685 174.101V175.101L273.648 175.126ZM220.87 188.311L213.833 188.336V189.336L220.87 189.311V188.311ZM273.648 189.126V188.126L280.685 188.101V189.101L273.648 189.126ZM220.87 202.311L213.833 202.336V203.336L220.87 203.311V202.311ZM273.648 203.126V202.126L280.685 202.101V203.101L273.648 203.126ZM220.87 216.311L213.833 216.336V217.336L220.87 217.311V216.311ZM273.648 217.126V216.126L280.685 216.101V217.101L273.648 217.126ZM220.87 230.311L213.833 230.336V231.336L220.87 231.311V230.311ZM273.648 231.126V230.126L280.685 230.101V231.101L273.648 231.126ZM220.87 244.311L213.833 244.336V245.336L220.87 245.311V244.311ZM273.648 245.126V244.126L280.685 244.101V245.101L273.648 245.126ZM220.87 258.311L213.833 258.336V259.336L220.87 259.311V258.311ZM273.648 259.126V258.126L280.685 258.101V259.101L273.648 259.126ZM220.87 272.311L213.833 272.336V273.336L220.87 273.311V272.311ZM273.648 273.126V272.126L280.685 272.101V273.101L273.648 273.126ZM220.87 286.311L213.833 286.336V287.336L220.87 287.311V286.311ZM273.648 287.126V286.126L280.685 286.101V287.101L273.648 287.126ZM220.87 300.311L213.833 300.336V301.336L220.87 301.311V300.311ZM273.648 301.126V300.126L280.685 300.101V301.101L273.648 301.126ZM220.87 314.311L213.833 314.336V315.336L220.87 315.311V314.311ZM273.648 315.126V314.126L280.685 314.101V315.101L273.648 315.126ZM220.87 328.311L213.833 328.336V329.336L220.87 329.311V328.311ZM273.648 329.126V328.126L280.685 328.101V329.101L273.648 329.126ZM220.87 342.311L213.833 342.336V343.336L220.87 343.311V342.311ZM273.648 343.126V342.126L280.685 342.101V343.101L273.648 343.126ZM220.87 356.311L213.833 356.336V357.336L220.87 357.311V356.311ZM273.648 357.126V356.126L280.685 356.101V357.101L273.648 357.126ZM220.87 370.311L213.833 370.336V371.336L220.87 371.311V370.311ZM273.648 371.126V370.126L280.685 370.101V371.101L273.648 371.126ZM220.87 384.311L213.833 384.336V385.336L220.87 385.311V384.311ZM273.648 385.126V384.126L280.685 384.101V385.101L273.648 385.126ZM220.87 398.311V399.225L273.648 399.04V398.126L280.685 398.101V399.101L213.833 399.336V398.336L220.87 398.311Z" fill="#707070"/>
<path id="Subtract_2" fill-rule="evenodd" clip-rule="evenodd" d="M220.87 118.311L206.796 118.36V119.36L220.87 119.311V118.311ZM273.648 118.126V119.126L287.722 119.077V118.077L273.648 118.126ZM220.87 188.311L206.796 188.36V189.36L220.87 189.311V188.311ZM273.648 189.126V188.126L287.722 188.077V189.077L273.648 189.126ZM220.87 258.311L206.796 258.36V259.36L220.87 259.311V258.311ZM273.648 259.126V258.126L287.722 258.077V259.077L273.648 259.126ZM220.87 328.311L206.796 328.36V329.36L220.87 329.311V328.311ZM273.648 329.126V328.126L287.722 328.077V329.077L273.648 329.126ZM220.87 398.311V399.225L273.648 399.04V398.126L287.722 398.077V399.077L206.796 399.36V398.36L220.87 398.311Z" fill="#707070"/>
</g>
<g id="Track">
<rect x="-0.499997" y="0.501753" width="279.914" height="44.7411" transform="matrix(0 1 -0.999994 0.00350615 270.131 119.138)" fill="#F0F0F0"/>
<rect x="-0.499997" y="0.501753" width="279.914" height="44.7411" transform="matrix(0 1 -0.999994 0.00350615 270.131 119.138)" stroke="#D9D9D9"/>
</g>
<g id="Power">
<rect id="Bar" width="139.952" height="42.2225" transform="matrix(0 1 -0.999994 0.00350615 268.37 119.206)" fill="#274C85"/>
</g>
<path id="center-line" d="M291.051 259.131L203.087 259.44" stroke="#707070"/>
<rect x="-0.999994" y="1.00351" width="278.914" height="89.4822" rx="1" transform="matrix(0 1 -0.999994 0.00350615 293.004 120.058)" stroke="#F69400" stroke-width="2" shape-rendering="crispEdges"/>
</g>
<g id="Recommended-engine-load">
<path id="Recomended-engine-load" d="M286 269.016C286 269.84 285.059 270.314 284.4 269.822L270 259.07L284.4 248.208C285.059 247.711 286 248.178 286 249.002L286 269.016Z" fill="#C900CA" fill-opacity="0.25"/>
<path id="Recomended-engine-load_2" d="M208 269.016C208 269.84 208.941 270.314 209.6 269.822L224 259.07L209.6 248.208C208.941 247.711 208 248.178 208 249.002L208 269.016Z" fill="#C900CA" fill-opacity="0.25"/>
<path id="Vector 11" d="M226 259.018L268 259" stroke="#C900CA" stroke-opacity="0.25"/>
</g>
<g id="SET-ENG" filter="url(#filter1_d_20_2990)">
<g id="SET-ENF-LEFT">
<path id="Vector 10" d="M202.203 271.186L174 271.186C172.343 271.186 171 269.843 171 268.186V249.186C171 247.529 172.343 246.186 174 246.186L202.147 246.186C202.704 246.186 203.251 246.341 203.726 246.635L224 259.186L203.692 270.791C203.238 271.05 202.725 271.186 202.203 271.186Z" fill="#F69400"/>
<path id="100%" d="M177.797 263L175.99 263V257.423C175.99 257.258 175.99 257.072 175.99 256.864C175.998 256.647 176.007 256.431 176.016 256.214C176.024 255.997 176.033 255.798 176.042 255.616C175.981 255.685 175.881 255.785 175.743 255.915C175.613 256.045 175.478 256.166 175.34 256.279L174.3 257.124L173.416 256.019L176.315 253.718L177.797 253.718V263ZM186.939 258.359C186.939 259.104 186.879 259.772 186.757 260.361C186.645 260.95 186.458 261.453 186.198 261.869C185.947 262.276 185.618 262.588 185.21 262.805C184.803 263.022 184.305 263.13 183.715 263.13C182.979 263.13 182.372 262.939 181.895 262.558C181.427 262.177 181.076 261.631 180.842 260.92C180.617 260.201 180.504 259.347 180.504 258.359C180.504 257.354 180.608 256.496 180.816 255.785C181.024 255.074 181.362 254.528 181.83 254.147C182.307 253.766 182.935 253.575 183.715 253.575C184.452 253.575 185.054 253.766 185.522 254.147C185.999 254.52 186.354 255.066 186.588 255.785C186.822 256.496 186.939 257.354 186.939 258.359ZM182.311 258.359C182.311 259.087 182.355 259.698 182.441 260.192C182.528 260.677 182.671 261.046 182.87 261.297C183.078 261.54 183.36 261.661 183.715 261.661C184.071 261.661 184.348 261.54 184.547 261.297C184.755 261.054 184.903 260.69 184.989 260.205C185.085 259.711 185.132 259.096 185.132 258.359C185.132 257.622 185.085 257.011 184.989 256.526C184.903 256.032 184.755 255.664 184.547 255.421C184.348 255.17 184.071 255.044 183.715 255.044C183.36 255.044 183.078 255.17 182.87 255.421C182.671 255.664 182.528 256.028 182.441 256.513C182.355 256.998 182.311 257.614 182.311 258.359ZM194.379 258.359C194.379 259.104 194.318 259.772 194.197 260.361C194.084 260.95 193.898 261.453 193.638 261.869C193.386 262.276 193.057 262.588 192.65 262.805C192.242 263.022 191.744 263.13 191.155 263.13C190.418 263.13 189.811 262.939 189.335 262.558C188.867 262.177 188.516 261.631 188.282 260.92C188.056 260.201 187.944 259.347 187.944 258.359C187.944 257.354 188.048 256.496 188.256 255.785C188.464 255.074 188.802 254.528 189.27 254.147C189.746 253.766 190.375 253.575 191.155 253.575C191.891 253.575 192.494 253.766 192.962 254.147C193.438 254.52 193.794 255.066 194.028 255.785C194.262 256.496 194.379 257.354 194.379 258.359ZM189.751 258.359C189.751 259.087 189.794 259.698 189.881 260.192C189.967 260.677 190.11 261.046 190.31 261.297C190.518 261.54 190.799 261.661 191.155 261.661C191.51 261.661 191.787 261.54 191.987 261.297C192.195 261.054 192.342 260.69 192.429 260.205C192.524 259.711 192.572 259.096 192.572 258.359C192.572 257.622 192.524 257.011 192.429 256.526C192.342 256.032 192.195 255.664 191.987 255.421C191.787 255.17 191.51 255.044 191.155 255.044C190.799 255.044 190.518 255.17 190.31 255.421C190.11 255.664 189.967 256.028 189.881 256.513C189.794 256.998 189.751 257.614 189.751 258.359ZM197.463 253.588C198.182 253.588 198.724 253.844 199.088 254.355C199.452 254.858 199.634 255.568 199.634 256.487C199.634 257.406 199.461 258.125 199.114 258.645C198.767 259.156 198.217 259.412 197.463 259.412C197.004 259.412 196.614 259.295 196.293 259.061C195.972 258.827 195.73 258.493 195.565 258.06C195.409 257.618 195.331 257.094 195.331 256.487C195.331 255.568 195.5 254.858 195.838 254.355C196.185 253.844 196.726 253.588 197.463 253.588ZM197.476 254.81C197.242 254.81 197.073 254.949 196.969 255.226C196.865 255.503 196.813 255.924 196.813 256.487C196.813 257.05 196.865 257.475 196.969 257.761C197.073 258.047 197.242 258.19 197.476 258.19C197.71 258.19 197.883 258.051 197.996 257.774C198.109 257.488 198.165 257.063 198.165 256.5C198.165 255.928 198.109 255.503 197.996 255.226C197.883 254.949 197.71 254.81 197.476 254.81ZM203.937 253.718L198.789 263L197.359 263L202.507 253.718L203.937 253.718ZM203.807 257.293C204.284 257.293 204.682 257.41 205.003 257.644C205.324 257.869 205.566 258.199 205.731 258.632C205.896 259.057 205.978 259.577 205.978 260.192C205.978 261.111 205.805 261.83 205.458 262.35C205.111 262.861 204.561 263.117 203.807 263.117C203.348 263.117 202.958 263 202.637 262.766C202.316 262.532 202.078 262.198 201.922 261.765C201.766 261.323 201.688 260.799 201.688 260.192C201.688 259.273 201.857 258.563 202.195 258.06C202.533 257.549 203.07 257.293 203.807 257.293ZM203.82 258.528C203.595 258.528 203.426 258.667 203.313 258.944C203.209 259.221 203.157 259.642 203.157 260.205C203.157 260.768 203.209 261.193 203.313 261.479C203.417 261.756 203.586 261.895 203.82 261.895C204.054 261.895 204.227 261.756 204.34 261.479C204.453 261.202 204.509 260.777 204.509 260.205C204.509 259.642 204.453 259.221 204.34 258.944C204.227 258.667 204.054 258.528 203.82 258.528Z" fill="white"/>
</g>
<g id="SET-ENG-RIGHT" filter="url(#filter2_d_20_2990)">
<g id="Group 5">
<path id="Union" fill-rule="evenodd" clip-rule="evenodd" d="M318 246.359C320.762 246.359 323 248.598 323 251.359V266.359C323 269.121 320.762 271.359 318 271.359L294 271.359C292.875 271.359 291.836 270.988 291 270.36V271.186L270 258.891L291 247.186V247.359C291.836 246.731 292.875 246.359 294 246.359L318 246.359Z" fill="#F69400"/>
<path id="Vector 10_2" d="M291.797 271.186L320 271.186C321.657 271.186 323 269.843 323 268.186V249.186C323 247.529 321.657 246.186 320 246.186L291.854 246.186C291.296 246.186 290.749 246.341 290.275 246.635L270 259.186L290.309 270.791C290.762 271.05 291.275 271.186 291.797 271.186Z" fill="#F69400"/>
</g>
<path id="100%_2" d="M292.797 263L290.99 263V257.423C290.99 257.258 290.99 257.072 290.99 256.864C290.998 256.647 291.007 256.431 291.016 256.214C291.024 255.997 291.033 255.798 291.042 255.616C290.981 255.685 290.881 255.785 290.743 255.915C290.613 256.045 290.478 256.166 290.34 256.279L289.3 257.124L288.416 256.019L291.315 253.718L292.797 253.718V263ZM301.939 258.359C301.939 259.104 301.879 259.772 301.757 260.361C301.645 260.95 301.458 261.453 301.198 261.869C300.947 262.276 300.618 262.588 300.21 262.805C299.803 263.022 299.305 263.13 298.715 263.13C297.979 263.13 297.372 262.939 296.895 262.558C296.427 262.177 296.076 261.631 295.842 260.92C295.617 260.201 295.504 259.347 295.504 258.359C295.504 257.354 295.608 256.496 295.816 255.785C296.024 255.074 296.362 254.528 296.83 254.147C297.307 253.766 297.935 253.575 298.715 253.575C299.452 253.575 300.054 253.766 300.522 254.147C300.999 254.52 301.354 255.066 301.588 255.785C301.822 256.496 301.939 257.354 301.939 258.359ZM297.311 258.359C297.311 259.087 297.355 259.698 297.441 260.192C297.528 260.677 297.671 261.046 297.87 261.297C298.078 261.54 298.36 261.661 298.715 261.661C299.071 261.661 299.348 261.54 299.547 261.297C299.755 261.054 299.903 260.69 299.989 260.205C300.085 259.711 300.132 259.096 300.132 258.359C300.132 257.622 300.085 257.011 299.989 256.526C299.903 256.032 299.755 255.664 299.547 255.421C299.348 255.17 299.071 255.044 298.715 255.044C298.36 255.044 298.078 255.17 297.87 255.421C297.671 255.664 297.528 256.028 297.441 256.513C297.355 256.998 297.311 257.614 297.311 258.359ZM309.379 258.359C309.379 259.104 309.318 259.772 309.197 260.361C309.084 260.95 308.898 261.453 308.638 261.869C308.386 262.276 308.057 262.588 307.65 262.805C307.242 263.022 306.744 263.13 306.155 263.13C305.418 263.13 304.811 262.939 304.335 262.558C303.867 262.177 303.516 261.631 303.282 260.92C303.056 260.201 302.944 259.347 302.944 258.359C302.944 257.354 303.048 256.496 303.256 255.785C303.464 255.074 303.802 254.528 304.27 254.147C304.746 253.766 305.375 253.575 306.155 253.575C306.891 253.575 307.494 253.766 307.962 254.147C308.438 254.52 308.794 255.066 309.028 255.785C309.262 256.496 309.379 257.354 309.379 258.359ZM304.751 258.359C304.751 259.087 304.794 259.698 304.881 260.192C304.967 260.677 305.11 261.046 305.31 261.297C305.518 261.54 305.799 261.661 306.155 261.661C306.51 261.661 306.787 261.54 306.987 261.297C307.195 261.054 307.342 260.69 307.429 260.205C307.524 259.711 307.572 259.096 307.572 258.359C307.572 257.622 307.524 257.011 307.429 256.526C307.342 256.032 307.195 255.664 306.987 255.421C306.787 255.17 306.51 255.044 306.155 255.044C305.799 255.044 305.518 255.17 305.31 255.421C305.11 255.664 304.967 256.028 304.881 256.513C304.794 256.998 304.751 257.614 304.751 258.359ZM312.463 253.588C313.182 253.588 313.724 253.844 314.088 254.355C314.452 254.858 314.634 255.568 314.634 256.487C314.634 257.406 314.461 258.125 314.114 258.645C313.767 259.156 313.217 259.412 312.463 259.412C312.004 259.412 311.614 259.295 311.293 259.061C310.972 258.827 310.73 258.493 310.565 258.06C310.409 257.618 310.331 257.094 310.331 256.487C310.331 255.568 310.5 254.858 310.838 254.355C311.185 253.844 311.726 253.588 312.463 253.588ZM312.476 254.81C312.242 254.81 312.073 254.949 311.969 255.226C311.865 255.503 311.813 255.924 311.813 256.487C311.813 257.05 311.865 257.475 311.969 257.761C312.073 258.047 312.242 258.19 312.476 258.19C312.71 258.19 312.883 258.051 312.996 257.774C313.109 257.488 313.165 257.063 313.165 256.5C313.165 255.928 313.109 255.503 312.996 255.226C312.883 254.949 312.71 254.81 312.476 254.81ZM318.937 253.718L313.789 263L312.359 263L317.507 253.718L318.937 253.718ZM318.807 257.293C319.284 257.293 319.682 257.41 320.003 257.644C320.324 257.869 320.566 258.199 320.731 258.632C320.896 259.057 320.978 259.577 320.978 260.192C320.978 261.111 320.805 261.83 320.458 262.35C320.111 262.861 319.561 263.117 318.807 263.117C318.348 263.117 317.958 263 317.637 262.766C317.316 262.532 317.078 262.198 316.922 261.765C316.766 261.323 316.688 260.799 316.688 260.192C316.688 259.273 316.857 258.563 317.195 258.06C317.533 257.549 318.07 257.293 318.807 257.293ZM318.82 258.528C318.595 258.528 318.426 258.667 318.313 258.944C318.209 259.221 318.157 259.642 318.157 260.205C318.157 260.768 318.209 261.193 318.313 261.479C318.417 261.756 318.586 261.895 318.82 261.895C319.054 261.895 319.227 261.756 319.34 261.479C319.453 261.202 319.509 260.777 319.509 260.205C319.509 259.642 319.453 259.221 319.34 258.944C319.227 258.667 319.054 258.528 318.82 258.528Z" fill="white"/>
</g>
</g>
<path id="FrontArrow" d="M291.85 117.377C292.168 117.69 291.946 118.233 291.499 118.234L203.51 118.543C203.063 118.544 202.841 118.003 203.159 117.688L247.505 73.8345L291.85 117.377Z" fill="#274C85"/>
</g>
</g>
<g id="setpoint">
<g id="SET-ANGLE" filter="url(#filter3_d_20_2990)">
<g id="set-arrow-angle">
<path id="Vector 10_3" d="M266.379 57.8749L266.304 39.9999C266.297 38.3431 264.949 37 263.292 37L230.13 37C228.473 37 227.135 38.3431 227.142 39.9999L227.217 57.8029C227.221 58.7678 227.689 59.6738 228.474 60.2375L247.649 74.0002L265.234 60.2405C265.961 59.672 266.383 58.7993 266.379 57.8749Z" fill="#F69400"/>
</g>
<path id="azimut-angel" d="M238.787 53L236.98 53L236.98 47.423C236.98 47.2583 236.98 47.072 236.98 46.864C236.988 46.6473 236.997 46.4307 237.006 46.214C237.014 45.9973 237.023 45.798 237.032 45.616C236.971 45.6853 236.871 45.785 236.733 45.915C236.603 46.045 236.468 46.1663 236.33 46.279L235.29 47.124L234.406 46.019L237.305 43.718L238.787 43.718L238.787 53ZM244.718 43.601C245.255 43.601 245.745 43.6833 246.187 43.848C246.629 44.0127 246.98 44.2597 247.24 44.589C247.509 44.9183 247.643 45.3343 247.643 45.837C247.643 46.2097 247.569 46.5347 247.422 46.812C247.275 47.0893 247.075 47.3363 246.824 47.553C246.573 47.761 246.287 47.943 245.966 48.099C246.304 48.2723 246.62 48.476 246.915 48.71C247.218 48.9353 247.461 49.204 247.643 49.516C247.834 49.8193 247.929 50.179 247.929 50.595C247.929 51.1063 247.795 51.5527 247.526 51.934C247.257 52.3153 246.88 52.61 246.395 52.818C245.918 53.026 245.359 53.13 244.718 53.13C244.033 53.13 243.448 53.0303 242.963 52.831C242.486 52.6317 242.122 52.3457 241.871 51.973C241.62 51.6003 241.494 51.1583 241.494 50.647C241.494 50.2223 241.572 49.854 241.728 49.542C241.893 49.23 242.114 48.9613 242.391 48.736C242.668 48.502 242.972 48.307 243.301 48.151C243.015 47.9777 242.755 47.7827 242.521 47.566C242.296 47.3407 242.114 47.0893 241.975 46.812C241.845 46.526 241.78 46.1967 241.78 45.824C241.78 45.33 241.914 44.9183 242.183 44.589C242.452 44.2597 242.811 44.0127 243.262 43.848C243.713 43.6833 244.198 43.601 244.718 43.601ZM243.171 50.556C243.171 50.9113 243.297 51.206 243.548 51.44C243.808 51.674 244.189 51.791 244.692 51.791C245.039 51.791 245.325 51.739 245.55 51.635C245.784 51.531 245.957 51.388 246.07 51.206C246.191 51.0153 246.252 50.7987 246.252 50.556C246.252 50.3047 246.178 50.088 246.031 49.906C245.892 49.7153 245.71 49.5463 245.485 49.399C245.268 49.243 245.034 49.1043 244.783 48.983L244.601 48.892C244.315 49.022 244.064 49.1693 243.847 49.334C243.63 49.4987 243.461 49.6807 243.34 49.88C243.227 50.0707 243.171 50.296 243.171 50.556ZM244.705 44.927C244.35 44.927 244.055 45.018 243.821 45.2C243.596 45.3733 243.483 45.6247 243.483 45.954C243.483 46.188 243.539 46.3917 243.652 46.565C243.765 46.7297 243.916 46.877 244.107 47.007C244.298 47.1283 244.506 47.241 244.731 47.345C244.948 47.2497 245.147 47.1413 245.329 47.02C245.511 46.8987 245.658 46.7513 245.771 46.578C245.884 46.4047 245.94 46.1967 245.94 45.954C245.94 45.6247 245.823 45.3733 245.589 45.2C245.364 45.018 245.069 44.927 244.705 44.927ZM255.368 48.359C255.368 49.1043 255.308 49.7717 255.186 50.361C255.074 50.9503 254.887 51.453 254.627 51.869C254.376 52.2763 254.047 52.5883 253.639 52.805C253.232 53.0217 252.734 53.13 252.144 53.13C251.408 53.13 250.801 52.9393 250.324 52.558C249.856 52.1767 249.505 51.6307 249.271 50.92C249.046 50.2007 248.933 49.347 248.933 48.359C248.933 47.3537 249.037 46.4957 249.245 45.785C249.453 45.0743 249.791 44.5283 250.259 44.147C250.736 43.7657 251.364 43.575 252.144 43.575C252.881 43.575 253.483 43.7657 253.951 44.147C254.428 44.5197 254.783 45.0657 255.017 45.785C255.251 46.4957 255.368 47.3537 255.368 48.359ZM250.74 48.359C250.74 49.087 250.784 49.698 250.87 50.192C250.957 50.6773 251.1 51.0457 251.299 51.297C251.507 51.5397 251.789 51.661 252.144 51.661C252.5 51.661 252.777 51.5397 252.976 51.297C253.184 51.0543 253.332 50.6903 253.418 50.205C253.514 49.711 253.561 49.0957 253.561 48.359C253.561 47.6223 253.514 47.0113 253.418 46.526C253.332 46.032 253.184 45.6637 252.976 45.421C252.777 45.1697 252.5 45.044 252.144 45.044C251.789 45.044 251.507 45.1697 251.299 45.421C251.1 45.6637 250.957 46.0277 250.87 46.513C250.784 46.9983 250.74 47.6137 250.74 48.359ZM258.661 47.891C258.228 47.891 257.842 47.8 257.504 47.618C257.166 47.436 256.902 47.1847 256.711 46.864C256.52 46.5347 256.425 46.162 256.425 45.746C256.425 45.33 256.52 44.9617 256.711 44.641C256.902 44.3117 257.162 44.056 257.491 43.874C257.829 43.6833 258.219 43.588 258.661 43.588C259.103 43.588 259.489 43.679 259.818 43.861C260.156 44.043 260.416 44.2987 260.598 44.628C260.789 44.9487 260.884 45.3213 260.884 45.746C260.884 46.162 260.789 46.5347 260.598 46.864C260.416 47.1847 260.156 47.436 259.818 47.618C259.489 47.8 259.103 47.891 258.661 47.891ZM258.661 46.773C258.964 46.773 259.211 46.682 259.402 46.5C259.593 46.3093 259.688 46.058 259.688 45.746C259.688 45.5293 259.645 45.343 259.558 45.187C259.471 45.031 259.35 44.914 259.194 44.836C259.038 44.7493 258.86 44.706 258.661 44.706C258.366 44.706 258.119 44.8013 257.92 44.992C257.729 45.174 257.634 45.4253 257.634 45.746C257.634 46.058 257.729 46.3093 257.92 46.5C258.119 46.682 258.366 46.773 258.661 46.773Z" fill="white"/>
</g>
<path id="100%_3" d="M234.797 111L232.99 111L232.99 105.423C232.99 105.258 232.99 105.072 232.99 104.864C232.998 104.647 233.007 104.431 233.016 104.214C233.024 103.997 233.033 103.798 233.042 103.616C232.981 103.685 232.881 103.785 232.743 103.915C232.613 104.045 232.478 104.166 232.34 104.279L231.3 105.124L230.416 104.019L233.315 101.718L234.797 101.718L234.797 111ZM243.939 106.359C243.939 107.104 243.879 107.772 243.757 108.361C243.645 108.95 243.458 109.453 243.198 109.869C242.947 110.276 242.618 110.588 242.21 110.805C241.803 111.022 241.305 111.13 240.715 111.13C239.979 111.13 239.372 110.939 238.895 110.558C238.427 110.177 238.076 109.631 237.842 108.92C237.617 108.201 237.504 107.347 237.504 106.359C237.504 105.354 237.608 104.496 237.816 103.785C238.024 103.074 238.362 102.528 238.83 102.147C239.307 101.766 239.935 101.575 240.715 101.575C241.452 101.575 242.054 101.766 242.522 102.147C242.999 102.52 243.354 103.066 243.588 103.785C243.822 104.496 243.939 105.354 243.939 106.359ZM239.311 106.359C239.311 107.087 239.355 107.698 239.441 108.192C239.528 108.677 239.671 109.046 239.87 109.297C240.078 109.54 240.36 109.661 240.715 109.661C241.071 109.661 241.348 109.54 241.547 109.297C241.755 109.054 241.903 108.69 241.989 108.205C242.085 107.711 242.132 107.096 242.132 106.359C242.132 105.622 242.085 105.011 241.989 104.526C241.903 104.032 241.755 103.664 241.547 103.421C241.348 103.17 241.071 103.044 240.715 103.044C240.36 103.044 240.078 103.17 239.87 103.421C239.671 103.664 239.528 104.028 239.441 104.513C239.355 104.998 239.311 105.614 239.311 106.359ZM251.379 106.359C251.379 107.104 251.318 107.772 251.197 108.361C251.084 108.95 250.898 109.453 250.638 109.869C250.386 110.276 250.057 110.588 249.65 110.805C249.242 111.022 248.744 111.13 248.155 111.13C247.418 111.13 246.811 110.939 246.335 110.558C245.867 110.177 245.516 109.631 245.282 108.92C245.056 108.201 244.944 107.347 244.944 106.359C244.944 105.354 245.048 104.496 245.256 103.785C245.464 103.074 245.802 102.528 246.27 102.147C246.746 101.766 247.375 101.575 248.155 101.575C248.891 101.575 249.494 101.766 249.962 102.147C250.438 102.52 250.794 103.066 251.028 103.785C251.262 104.496 251.379 105.354 251.379 106.359ZM246.751 106.359C246.751 107.087 246.794 107.698 246.881 108.192C246.967 108.677 247.11 109.046 247.31 109.297C247.518 109.54 247.799 109.661 248.155 109.661C248.51 109.661 248.787 109.54 248.987 109.297C249.195 109.054 249.342 108.69 249.429 108.205C249.524 107.711 249.572 107.096 249.572 106.359C249.572 105.622 249.524 105.011 249.429 104.526C249.342 104.032 249.195 103.664 248.987 103.421C248.787 103.17 248.51 103.044 248.155 103.044C247.799 103.044 247.518 103.17 247.31 103.421C247.11 103.664 246.967 104.028 246.881 104.513C246.794 104.998 246.751 105.614 246.751 106.359ZM254.463 101.588C255.182 101.588 255.724 101.844 256.088 102.355C256.452 102.858 256.634 103.568 256.634 104.487C256.634 105.406 256.461 106.125 256.114 106.645C255.767 107.156 255.217 107.412 254.463 107.412C254.004 107.412 253.614 107.295 253.293 107.061C252.972 106.827 252.73 106.493 252.565 106.06C252.409 105.618 252.331 105.094 252.331 104.487C252.331 103.568 252.5 102.858 252.838 102.355C253.185 101.844 253.726 101.588 254.463 101.588ZM254.476 102.81C254.242 102.81 254.073 102.949 253.969 103.226C253.865 103.503 253.813 103.924 253.813 104.487C253.813 105.05 253.865 105.475 253.969 105.761C254.073 106.047 254.242 106.19 254.476 106.19C254.71 106.19 254.883 106.051 254.996 105.774C255.109 105.488 255.165 105.063 255.165 104.5C255.165 103.928 255.109 103.503 254.996 103.226C254.883 102.949 254.71 102.81 254.476 102.81ZM260.937 101.718L255.789 111L254.359 111L259.507 101.718L260.937 101.718ZM260.807 105.293C261.284 105.293 261.682 105.41 262.003 105.644C262.324 105.869 262.566 106.199 262.731 106.632C262.896 107.057 262.978 107.577 262.978 108.192C262.978 109.111 262.805 109.83 262.458 110.35C262.111 110.861 261.561 111.117 260.807 111.117C260.348 111.117 259.958 111 259.637 110.766C259.316 110.532 259.078 110.198 258.922 109.765C258.766 109.323 258.688 108.799 258.688 108.192C258.688 107.273 258.857 106.563 259.195 106.06C259.533 105.549 260.07 105.293 260.807 105.293ZM260.82 106.528C260.595 106.528 260.426 106.667 260.313 106.944C260.209 107.221 260.157 107.642 260.157 108.205C260.157 108.768 260.209 109.193 260.313 109.479C260.417 109.756 260.586 109.895 260.82 109.895C261.054 109.895 261.227 109.756 261.34 109.479C261.453 109.202 261.509 108.777 261.509 108.205C261.509 107.642 261.453 107.221 261.34 106.944C261.227 106.667 261.054 106.528 260.82 106.528Z" fill="white"/>
</g>
</g>
<defs>
<filter id="filter0_d_20_2990" x="197.518" y="118.058" width="99.4817" height="289.235" filterUnits="userSpaceOnUse" color-interpolation-filters="sRGB">
<feFlood flood-opacity="0" result="BackgroundImageFix"/>
<feColorMatrix in="SourceAlpha" type="matrix" values="0 0 0 0 0 0 0 0 0 0 0 0 0 0 0 0 0 0 127 0" result="hardAlpha"/>
<feOffset dy="4"/>
<feGaussianBlur stdDeviation="2"/>
<feComposite in2="hardAlpha" operator="out"/>
<feColorMatrix type="matrix" values="0 0 0 0 0 0 0 0 0 0 0 0 0 0 0 0 0 0 0.25 0"/>
<feBlend mode="normal" in2="BackgroundImageFix" result="effect1_dropShadow_20_2990"/>
<feBlend mode="normal" in="SourceGraphic" in2="effect1_dropShadow_20_2990" result="shape"/>
</filter>
<filter id="filter1_d_20_2990" x="167" y="246.186" width="160" height="33.1736" filterUnits="userSpaceOnUse" color-interpolation-filters="sRGB">
<feFlood flood-opacity="0" result="BackgroundImageFix"/>
<feColorMatrix in="SourceAlpha" type="matrix" values="0 0 0 0 0 0 0 0 0 0 0 0 0 0 0 0 0 0 127 0" result="hardAlpha"/>
<feOffset dy="4"/>
<feGaussianBlur stdDeviation="2"/>
<feComposite in2="hardAlpha" operator="out"/>
<feColorMatrix type="matrix" values="0 0 0 0 0 0 0 0 0 0 0 0 0 0 0 0 0 0 0.25 0"/>
<feBlend mode="normal" in2="BackgroundImageFix" result="effect1_dropShadow_20_2990"/>
<feBlend mode="normal" in="SourceGraphic" in2="effect1_dropShadow_20_2990" result="shape"/>
</filter>
<filter id="filter2_d_20_2990" x="266" y="246.186" width="61.0002" height="33.1736" filterUnits="userSpaceOnUse" color-interpolation-filters="sRGB">
<feFlood flood-opacity="0" result="BackgroundImageFix"/>
<feColorMatrix in="SourceAlpha" type="matrix" values="0 0 0 0 0 0 0 0 0 0 0 0 0 0 0 0 0 0 127 0" result="hardAlpha"/>
<feOffset dy="4"/>
<feGaussianBlur stdDeviation="2"/>
<feComposite in2="hardAlpha" operator="out"/>
<feColorMatrix type="matrix" values="0 0 0 0 0 0 0 0 0 0 0 0 0 0 0 0 0 0 0.25 0"/>
<feBlend mode="normal" in2="BackgroundImageFix" result="effect1_dropShadow_20_2990"/>
<feBlend mode="normal" in="SourceGraphic" in2="effect1_dropShadow_20_2990" result="shape"/>
</filter>
<filter id="filter3_d_20_2990" x="223.142" y="37" width="47.2371" height="45.0002" filterUnits="userSpaceOnUse" color-interpolation-filters="sRGB">
<feFlood flood-opacity="0" result="BackgroundImageFix"/>
<feColorMatrix in="SourceAlpha" type="matrix" values="0 0 0 0 0 0 0 0 0 0 0 0 0 0 0 0 0 0 127 0" result="hardAlpha"/>
<feOffset dy="4"/>
<feGaussianBlur stdDeviation="2"/>
<feComposite in2="hardAlpha" operator="out"/>
<feColorMatrix type="matrix" values="0 0 0 0 0 0 0 0 0 0 0 0 0 0 0 0 0 0 0.25 0"/>
<feBlend mode="normal" in2="BackgroundImageFix" result="effect1_dropShadow_20_2990"/>
<feBlend mode="normal" in="SourceGraphic" in2="effect1_dropShadow_20_2990" result="shape"/>
</filter>
<clipPath id="clip0_20_2990">
<rect width="277.403" height="84.4451" fill="white" transform="matrix(0 1 -0.999994 0.00350615 289.481 119.826)"/>
</clipPath>
</defs>
</svg>
